<svg height="24" viewBox="0 0 24 24" width="24" xmlns="http://www.w3.org/2000/svg"><path d="m6.5 12c3.03756612 0 5.5 2.4624339 5.5 5.5s-2.46243388 5.5-5.5 5.5-5.5-2.4624339-5.5-5.5 2.46243388-5.5 5.5-5.5zm5.6289096-10c.5965331 0 1.1686509.23689125 1.5905738.6585934l2.8118716 2.81040012 2.8076453 2.81187325c.4212245.42185907.6578127.99364203.6578127 1.58979233v9.8793409c0 1.2426407-1.0073593 2.25-2.25 2.25l-6.5571718.0008195c.4264023-.4441773.7903106-.9488047 1.0775885-1.4997459l5.4795833-.0010736c.4142136 0 .75-.3357864.75-.75l-.000813-9.747-4.246.0008905c-1.190864 0-2.1656449-.92516156-2.2448092-2.09595115l-.0051908-.15404881-.001-4.25389054h-5.749c-.41421356 0-.75.33578644-.75.75l-.00090892 6.8265886c-.52322884.0808684-1.02585102.2241372-1.50002414.4219639l.00093306-7.2485525c0-1.24264069 1.00735931-2.25 2.25-2.25zm-2.6289096 15.5h-2l-.08987563.0080557c-.23324921.0423359-.41012437.2464844-.41012437.4919443s.17687516.4496084.41012437.4919443l.08987563.0080557.87050377.0006122c-.36017461.6735447-1.0707654 1.1229764-1.87401575 1.1229764-.6137847 0-1.1842744-.2611608-1.58513237-.710402-.05576321-.0624938-.10780502-.1282058-.15582402-.1967742-.15840404-.2261919-.47018064-.2811448-.69637253-.1227407-.2261919.158404-.28114482.4701806-.12274078.6963725.07053052.1007135.14694007.1971941.22879325.2889269.58864508.659694 1.4294867 1.0446175 2.33127645 1.0446175.94818454 0 1.80832359-.4254688 2.38493993-1.1058519l.11914978-.149636-.00057773.6318993.00805567.0898756c.04233596.2332492.24648444.4101244.49194433.4101244s.44960837-.1768752.49194433-.4101244l.00805567-.0898756v-2l-.00805567-.0898756c-.04233596-.2332492-.24648444-.4101244-.49194433-.4101244zm-3.00351198-3.1235886c-.94568796 0-1.80374093.423221-2.38030708 1.1004002l-.11917078.1489352.00170211-.6257468-.00805567-.0898756c-.04233596-.2332492-.24648445-.4101244-.49194433-.4101244-.24545989 0-.44960838.1768752-.49194434.4101244l-.00805566.0898756v2l.00805566.0898756c.03704397.2040931.19797565.3650248.4020687.4020687l.08987564.0080557h2.00128773l.08987563-.0080557c.23324921-.0423359.41012437-.2464844.41012437-.4919443s-.17687516-.4496084-.41012437-.4919443l-.08987563-.0080557-.87772819-.0002367c.36009624-.6737186 1.07077658-1.1233519 1.87421621-1.1233519.61203152 0 1.18103876.2596569 1.58179014.7066652.05871481.065492.11333189.1345405.16350243.2067263.15759838.2267539.46917753.2828156.69593149.1252172s.28281564-.4691775.12521725-.6959315c-.07369297-.1060301-.15388414-.2074101-.24006959-.3035435-.58849351-.6564206-1.42716378-1.0391337-2.32637172-1.0391337zm7.00251198-9.8174114.001 3.19489054c0 .37969576.2821539.69349096.6482294.74315338l.1017706.00684662 3.191-.00089054z" fill="#212121"/></svg>